<svg xmlns="http://www.w3.org/2000/svg" xmlns:xlink="http://www.w3.org/1999/xlink" style="margin:auto;background:black;display:block;z-index:1;position:relative" width="1366" height="629" preserveAspectRatio="xMidYMid" viewBox="0 0 1366 629">
<g transform="translate(683,314.5) scale(1,1) translate(-683,-314.5)"><defs>
<linearGradient id="lg-0.9046627537119769" x1="0" x2="0" y1="0" y2="1">
  <stop stop-color="#292664" offset="0.3"></stop>
  <stop stop-color="#667395" offset="0.6499999999999999"></stop>
  <stop stop-color="#667395" offset="1"></stop>
</linearGradient>
<linearGradient id="fg-lg-0.9046627537119769" x1="0" x2="0" y1="0" y2="1">
  <stop stop-color="#292664" stop-opacity="1" offset="0.3"></stop>
  <stop stop-color="#667395" stop-opacity="0.66" offset="0.6499999999999999"></stop>
  <stop stop-color="#667395" stop-opacity="0" offset="1"></stop>
</linearGradient>
<style type="text/css">
  path { fill: none; stroke: #94a9ce; stroke-width: 2px }
</style>
</defs>
<rect x="0" y="0" width="1366" height="629" fill="url(#lg-0.9046627537119769)"></rect><path d="M0 188.7 L-9562 629"></path><path d="M10.507692307692308 188.7 L-9404.384615384615 629"></path><path d="M21.015384615384615 188.7 L-9246.76923076923 629"></path><path d="M31.523076923076925 188.7 L-9089.153846153846 629"></path><path d="M42.03076923076923 188.7 L-8931.538461538461 629"></path><path d="M52.53846153846154 188.7 L-8773.923076923076 629"></path><path d="M63.04615384615385 188.7 L-8616.307692307691 629"></path><path d="M73.55384615384615 188.7 L-8458.692307692309 629"></path><path d="M84.06153846153846 188.7 L-8301.076923076924 629"></path><path d="M94.56923076923077 188.7 L-8143.461538461539 629"></path><path d="M105.07692307692308 188.7 L-7985.846153846154 629"></path><path d="M115.58461538461539 188.7 L-7828.2307692307695 629"></path><path d="M126.0923076923077 188.7 L-7670.615384615385 629"></path><path d="M136.6 188.7 L-7513 629"></path><path d="M147.1076923076923 188.7 L-7355.384615384615 629"></path><path d="M157.6153846153846 188.7 L-7197.7692307692305 629"></path><path d="M168.12307692307692 188.7 L-7040.153846153846 629"></path><path d="M178.63076923076923 188.7 L-6882.538461538461 629"></path><path d="M189.13846153846154 188.7 L-6724.923076923077 629"></path><path d="M199.64615384615385 188.7 L-6567.307692307692 629"></path><path d="M210.15384615384616 188.7 L-6409.692307692308 629"></path><path d="M220.66153846153847 188.7 L-6252.076923076923 629"></path><path d="M231.16923076923078 188.7 L-6094.461538461539 629"></path><path d="M241.6769230769231 188.7 L-5936.846153846154 629"></path><path d="M252.1846153846154 188.7 L-5779.2307692307695 629"></path><path d="M262.6923076923077 188.7 L-5621.615384615385 629"></path><path d="M273.2 188.7 L-5464 629"></path><path d="M283.7076923076923 188.7 L-5306.384615384615 629"></path><path d="M294.2153846153846 188.7 L-5148.7692307692305 629"></path><path d="M304.7230769230769 188.7 L-4991.153846153846 629"></path><path d="M315.2307692307692 188.7 L-4833.538461538462 629"></path><path d="M325.73846153846154 188.7 L-4675.923076923077 629"></path><path d="M336.24615384615385 188.7 L-4518.307692307692 629"></path><path d="M346.75384615384615 188.7 L-4360.692307692308 629"></path><path d="M357.26153846153846 188.7 L-4203.076923076923 629"></path><path d="M367.7692307692308 188.7 L-4045.461538461538 629"></path><path d="M378.2769230769231 188.7 L-3887.8461538461543 629"></path><path d="M388.7846153846154 188.7 L-3730.2307692307695 629"></path><path d="M399.2923076923077 188.7 L-3572.6153846153848 629"></path><path d="M409.8 188.7 L-3415 629"></path><path d="M420.3076923076923 188.7 L-3257.3846153846152 629"></path><path d="M430.81538461538463 188.7 L-3099.7692307692305 629"></path><path d="M441.32307692307694 188.7 L-2942.1538461538457 629"></path><path d="M451.83076923076925 188.7 L-2784.538461538462 629"></path><path d="M462.33846153846156 188.7 L-2626.923076923077 629"></path><path d="M472.84615384615387 188.7 L-2469.3076923076924 629"></path><path d="M483.3538461538462 188.7 L-2311.6923076923076 629"></path><path d="M493.8615384615385 188.7 L-2154.076923076923 629"></path><path d="M504.3692307692308 188.7 L-1996.461538461538 629"></path><path d="M514.876923076923 188.7 L-1838.8461538461543 629"></path><path d="M525.3846153846154 188.7 L-1681.2307692307695 629"></path><path d="M535.8923076923077 188.7 L-1523.6153846153848 629"></path><path d="M546.4 188.7 L-1366 629"></path><path d="M556.9076923076923 188.7 L-1208.3846153846152 629"></path><path d="M567.4153846153846 188.7 L-1050.7692307692305 629"></path><path d="M577.9230769230769 188.7 L-893.1538461538457 629"></path><path d="M588.4307692307692 188.7 L-735.538461538461 629"></path><path d="M598.9384615384615 188.7 L-577.9230769230762 629"></path><path d="M609.4461538461538 188.7 L-420.30769230769147 629"></path><path d="M619.9538461538461 188.7 L-262.69230769230853 629"></path><path d="M630.4615384615385 188.7 L-105.07692307692378 629"></path><path d="M640.9692307692308 188.7 L52.53846153846098 629"></path><path d="M651.4769230769231 188.7 L210.15384615384573 629"></path><path d="M661.9846153846154 188.7 L367.7692307692305 629"></path><path d="M672.4923076923077 188.7 L525.3846153846152 629"></path><path d="M683 188.7 L683 629"></path><path d="M693.5076923076923 188.7 L840.6153846153848 629"></path><path d="M704.0153846153846 188.7 L998.2307692307695 629"></path><path d="M714.5230769230769 188.7 L1155.8461538461543 629"></path><path d="M725.0307692307692 188.7 L1313.461538461539 629"></path><path d="M735.5384615384615 188.7 L1471.0769230769238 629"></path><path d="M746.0461538461539 188.7 L1628.6923076923085 629"></path><path d="M756.5538461538462 188.7 L1786.3076923076915 629"></path><path d="M767.0615384615385 188.7 L1943.9230769230762 629"></path><path d="M777.5692307692308 188.7 L2101.538461538461 629"></path><path d="M788.0769230769231 188.7 L2259.1538461538457 629"></path><path d="M798.5846153846154 188.7 L2416.7692307692305 629"></path><path d="M809.0923076923077 188.7 L2574.3846153846152 629"></path><path d="M819.6 188.7 L2732 629"></path><path d="M830.1076923076923 188.7 L2889.6153846153848 629"></path><path d="M840.6153846153846 188.7 L3047.2307692307695 629"></path><path d="M851.123076923077 188.7 L3204.8461538461543 629"></path><path d="M861.6307692307693 188.7 L3362.461538461539 629"></path><path d="M872.1384615384616 188.7 L3520.076923076924 629"></path><path d="M882.6461538461539 188.7 L3677.6923076923085 629"></path><path d="M893.1538461538462 188.7 L3835.3076923076915 629"></path><path d="M903.6615384615385 188.7 L3992.923076923076 629"></path><path d="M914.1692307692308 188.7 L4150.538461538461 629"></path><path d="M924.6769230769231 188.7 L4308.153846153846 629"></path><path d="M935.1846153846154 188.7 L4465.7692307692305 629"></path><path d="M945.6923076923077 188.7 L4623.384615384615 629"></path><path d="M956.2 188.7 L4781 629"></path><path d="M966.7076923076924 188.7 L4938.615384615385 629"></path><path d="M977.2153846153847 188.7 L5096.2307692307695 629"></path><path d="M987.723076923077 188.7 L5253.846153846154 629"></path><path d="M998.2307692307693 188.7 L5411.461538461539 629"></path><path d="M1008.7384615384616 188.7 L5569.076923076924 629"></path><path d="M1019.2461538461539 188.7 L5726.6923076923085 629"></path><path d="M1029.753846153846 188.7 L5884.3076923076915 629"></path><path d="M1040.2615384615385 188.7 L6041.923076923076 629"></path><path d="M1050.7692307692307 188.7 L6199.538461538461 629"></path><path d="M1061.2769230769231 188.7 L6357.153846153846 629"></path><path d="M1071.7846153846153 188.7 L6514.7692307692305 629"></path><path d="M1082.2923076923078 188.7 L6672.384615384615 629"></path><path d="M1092.8 188.7 L6830 629"></path><path d="M1103.3076923076924 188.7 L6987.615384615383 629"></path><path d="M1113.8153846153846 188.7 L7145.2307692307695 629"></path><path d="M1124.323076923077 188.7 L7302.846153846152 629"></path><path d="M1134.8307692307692 188.7 L7460.461538461539 629"></path><path d="M1145.3384615384616 188.7 L7618.076923076922 629"></path><path d="M1155.8461538461538 188.7 L7775.6923076923085 629"></path><path d="M1166.3538461538462 188.7 L7933.3076923076915 629"></path><path d="M1176.8615384615384 188.7 L8090.923076923078 629"></path><path d="M1187.3692307692309 188.7 L8248.538461538461 629"></path><path d="M1197.876923076923 188.7 L8406.153846153848 629"></path><path d="M1208.3846153846155 188.7 L8563.76923076923 629"></path><path d="M1218.8923076923077 188.7 L8721.384615384617 629"></path><path d="M1229.4 188.7 L8879 629"></path><path d="M1239.9076923076923 188.7 L9036.615384615383 629"></path><path d="M1250.4153846153847 188.7 L9194.23076923077 629"></path><path d="M1260.923076923077 188.7 L9351.846153846152 629"></path><path d="M1271.4307692307693 188.7 L9509.461538461539 629"></path><path d="M1281.9384615384615 188.7 L9667.076923076922 629"></path><path d="M1292.446153846154 188.7 L9824.692307692309 629"></path><path d="M1302.9538461538461 188.7 L9982.307692307691 629"></path><path d="M1313.4615384615386 188.7 L10139.923076923078 629"></path><path d="M1323.9692307692308 188.7 L10297.538461538461 629"></path><path d="M1334.4769230769232 188.7 L10455.153846153848 629"></path><path d="M1344.9846153846154 188.7 L10612.76923076923 629"></path><path d="M1355.4923076923078 188.7 L10770.384615384617 629"></path><path d="M1366 188.7 L10928 629"></path><g>
<path d="M0 188.7 L1366 188.7"></path>
<animateTransform attributeName="transform" type="translate" repeatCount="indefinite" calcMode="linear" keyTimes="0;1" values="0 0;0 3.3348165680473367" begin="0s" dur="0.8333333333333334s"></animateTransform>

</g><g>
<path d="M0 192.03481656804732 L1366 192.03481656804732"></path>
<animateTransform attributeName="transform" type="translate" repeatCount="indefinite" calcMode="linear" keyTimes="0;1" values="0 0;0 6.669633136094673" begin="0s" dur="0.8333333333333334s"></animateTransform>

</g><g>
<path d="M0 198.70444970414198 L1366 198.70444970414198"></path>
<animateTransform attributeName="transform" type="translate" repeatCount="indefinite" calcMode="linear" keyTimes="0;1" values="0 0;0 10.00444970414201" begin="0s" dur="0.8333333333333334s"></animateTransform>

</g><g>
<path d="M0 208.708899408284 L1366 208.708899408284"></path>
<animateTransform attributeName="transform" type="translate" repeatCount="indefinite" calcMode="linear" keyTimes="0;1" values="0 0;0 13.339266272189345" begin="0s" dur="0.8333333333333334s"></animateTransform>

</g><g>
<path d="M0 222.04816568047335 L1366 222.04816568047335"></path>
<animateTransform attributeName="transform" type="translate" repeatCount="indefinite" calcMode="linear" keyTimes="0;1" values="0 0;0 16.674082840236682" begin="0s" dur="0.8333333333333334s"></animateTransform>

</g><g>
<path d="M0 238.72224852071002 L1366 238.72224852071002"></path>
<animateTransform attributeName="transform" type="translate" repeatCount="indefinite" calcMode="linear" keyTimes="0;1" values="0 0;0 20.00889940828402" begin="0s" dur="0.8333333333333334s"></animateTransform>

</g><g>
<path d="M0 258.73114792899406 L1366 258.73114792899406"></path>
<animateTransform attributeName="transform" type="translate" repeatCount="indefinite" calcMode="linear" keyTimes="0;1" values="0 0;0 23.343715976331357" begin="0s" dur="0.8333333333333334s"></animateTransform>

</g><g>
<path d="M0 282.0748639053254 L1366 282.0748639053254"></path>
<animateTransform attributeName="transform" type="translate" repeatCount="indefinite" calcMode="linear" keyTimes="0;1" values="0 0;0 26.678532544378694" begin="0s" dur="0.8333333333333334s"></animateTransform>

</g><g>
<path d="M0 308.7533964497041 L1366 308.7533964497041"></path>
<animateTransform attributeName="transform" type="translate" repeatCount="indefinite" calcMode="linear" keyTimes="0;1" values="0 0;0 30.013349112426027" begin="0s" dur="0.8333333333333334s"></animateTransform>

</g><g>
<path d="M0 338.76674556213015 L1366 338.76674556213015"></path>
<animateTransform attributeName="transform" type="translate" repeatCount="indefinite" calcMode="linear" keyTimes="0;1" values="0 0;0 33.348165680473365" begin="0s" dur="0.8333333333333334s"></animateTransform>

</g><g>
<path d="M0 372.1149112426035 L1366 372.1149112426035"></path>
<animateTransform attributeName="transform" type="translate" repeatCount="indefinite" calcMode="linear" keyTimes="0;1" values="0 0;0 36.6829822485207" begin="0s" dur="0.8333333333333334s"></animateTransform>

</g><g>
<path d="M0 408.7978934911242 L1366 408.7978934911242"></path>
<animateTransform attributeName="transform" type="translate" repeatCount="indefinite" calcMode="linear" keyTimes="0;1" values="0 0;0 40.01779881656804" begin="0s" dur="0.8333333333333334s"></animateTransform>

</g><g>
<path d="M0 448.81569230769225 L1366 448.81569230769225"></path>
<animateTransform attributeName="transform" type="translate" repeatCount="indefinite" calcMode="linear" keyTimes="0;1" values="0 0;0 43.352615384615376" begin="0s" dur="0.8333333333333334s"></animateTransform>

</g><g>
<path d="M0 492.1683076923076 L1366 492.1683076923076"></path>
<animateTransform attributeName="transform" type="translate" repeatCount="indefinite" calcMode="linear" keyTimes="0;1" values="0 0;0 46.68743195266271" begin="0s" dur="0.8333333333333334s"></animateTransform>

</g><g>
<path d="M0 538.8557396449703 L1366 538.8557396449703"></path>
<animateTransform attributeName="transform" type="translate" repeatCount="indefinite" calcMode="linear" keyTimes="0;1" values="0 0;0 50.02224852071005" begin="0s" dur="0.8333333333333334s"></animateTransform>

</g><g>
<path d="M0 588.8779881656803 L1366 588.8779881656803"></path>
<animateTransform attributeName="transform" type="translate" repeatCount="indefinite" calcMode="linear" keyTimes="0;1" values="0 0;0 53.35706508875739" begin="0s" dur="0.8333333333333334s"></animateTransform>

</g><g>
<path d="M0 642.2350532544377 L1366 642.2350532544377"></path>
<animateTransform attributeName="transform" type="translate" repeatCount="indefinite" calcMode="linear" keyTimes="0;1" values="0 0;0 56.691881656804725" begin="0s" dur="0.8333333333333334s"></animateTransform>

</g><rect x="0" y="0" width="1366" height="629" fill="url(#fg-lg-0.9046627537119769)"></rect></g>
</svg>